<?xml version="1.0" encoding="UTF-8" standalone="no"?>
<!DOCTYPE svg PUBLIC "-//W3C//DTD SVG 1.1//EN"
 "http://www.w3.org/Graphics/SVG/1.1/DTD/svg11.dtd">
<!-- Generated by graphviz version 2.40.1 (20161225.0304)
 -->
<!-- Title: %0 Pages: 1 -->
<svg width="144pt" height="383pt"
 viewBox="0.00 0.00 143.92 382.88" xmlns="http://www.w3.org/2000/svg" xmlns:xlink="http://www.w3.org/1999/xlink">
<g id="graph0" class="graph" transform="scale(1 1) rotate(0) translate(4 378.8782)">
<title>%0</title>
<polygon fill="#ffffff" stroke="transparent" points="-4,4 -4,-378.8782 139.9166,-378.8782 139.9166,4 -4,4"/>
<!-- ￥100.00 -->
<g id="node1" class="node">
<title>￥100.00</title>
<ellipse fill="none" stroke="#000000" cx="49.1225" cy="-325.7557" rx="49.2454" ry="49.2454"/>
<text text-anchor="middle" x="49.1225" y="-321.5557" font-family="Times,serif" font-size="14.00" fill="#000000">￥100.00</text>
</g>
<!-- ￥98.00 -->
<g id="node2" class="node">
<title>￥98.00</title>
<ellipse fill="none" stroke="#000000" cx="49.1225" cy="-195.3391" rx="44.0891" ry="44.0891"/>
<text text-anchor="middle" x="49.1225" y="-191.1391" font-family="Times,serif" font-size="14.00" fill="#000000">￥98.00</text>
</g>
<!-- ￥100.00&#45;&gt;￥98.00 -->
<g id="edge1" class="edge">
<title>￥100.00&#45;&gt;￥98.00</title>
<path fill="none" stroke="#000000" d="M49.1225,-276.4508C49.1225,-267.8445 49.1225,-258.8446 49.1225,-250.1019"/>
<polygon fill="#000000" stroke="#000000" points="52.6226,-249.9959 49.1225,-239.9959 45.6226,-249.9959 52.6226,-249.9959"/>
</g>
<!-- ￥98.00&#45;&gt;￥98.00 -->
<g id="edge2" class="edge">
<title>￥98.00&#45;&gt;￥98.00</title>
<path fill="none" stroke="#000000" d="M91.9221,-206.8442C103.0361,-206.137 111.4166,-202.302 111.4166,-195.3391 111.4166,-190.6609 107.6335,-187.3947 101.78,-185.5404"/>
<polygon fill="#000000" stroke="#000000" points="102.3725,-182.091 91.9221,-183.834 101.1785,-188.9885 102.3725,-182.091"/>
<text text-anchor="middle" x="123.6666" y="-191.1391" font-family="Times,serif" font-size="14.00" fill="#000000">0.99</text>
</g>
<!-- ￥198.00 -->
<g id="node3" class="node">
<title>￥198.00</title>
<ellipse fill="none" stroke="#000000" cx="49.1225" cy="-49.1225" rx="49.2454" ry="49.2454"/>
<text text-anchor="middle" x="49.1225" y="-44.9225" font-family="Times,serif" font-size="14.00" fill="#000000">￥198.00</text>
</g>
<!-- ￥98.00&#45;&gt;￥198.00 -->
<g id="edge3" class="edge">
<title>￥98.00&#45;&gt;￥198.00</title>
<path fill="none" stroke="#000000" d="M49.1225,-150.6748C49.1225,-137.3615 49.1225,-122.5571 49.1225,-108.4614"/>
<polygon fill="#000000" stroke="#000000" points="52.6226,-108.3541 49.1225,-98.3541 45.6226,-108.3541 52.6226,-108.3541"/>
<text text-anchor="middle" x="61.3725" y="-120.4451" font-family="Times,serif" font-size="14.00" fill="#000000">0.01</text>
</g>
</g>
</svg>
