<?xml version="1.0" encoding="UTF-8" standalone="no"?>
<!DOCTYPE svg PUBLIC "-//W3C//DTD SVG 1.1//EN"
 "http://www.w3.org/Graphics/SVG/1.1/DTD/svg11.dtd">
<!-- Generated by graphviz version 2.40.1 (20161225.0304)
 -->
<!-- Title: %0 Pages: 1 -->
<svg width="283pt" height="260pt"
 viewBox="0.00 0.00 282.72 260.00" xmlns="http://www.w3.org/2000/svg" xmlns:xlink="http://www.w3.org/1999/xlink">
<g id="graph0" class="graph" transform="scale(1 1) rotate(0) translate(4 256)">
<title>%0</title>
<polygon fill="#ffffff" stroke="transparent" points="-4,4 -4,-256 278.7195,-256 278.7195,4 -4,4"/>
<!-- 感知、定位 -->
<g id="node1" class="node">
<title>感知、定位</title>
<polygon fill="none" stroke="#000000" points="182.0026,-252 94.712,-252 94.712,-216 182.0026,-216 182.0026,-252"/>
<text text-anchor="middle" x="138.3573" y="-229.8" font-family="Times,serif" font-size="14.00" fill="#000000">感知、定位</text>
</g>
<!-- 运动预测 -->
<g id="node2" class="node">
<title>运动预测</title>
<polygon fill="none" stroke="#000000" points="178.232,-180 98.4826,-180 98.4826,-144 178.232,-144 178.232,-180"/>
<text text-anchor="middle" x="138.3573" y="-157.8" font-family="Times,serif" font-size="14.00" fill="#000000">运动预测</text>
</g>
<!-- 感知、定位&#45;&gt;运动预测 -->
<g id="edge1" class="edge">
<title>感知、定位&#45;&gt;运动预测</title>
<path fill="none" stroke="#000000" d="M138.3573,-215.8314C138.3573,-208.131 138.3573,-198.9743 138.3573,-190.4166"/>
<polygon fill="#000000" stroke="#000000" points="141.8574,-190.4132 138.3573,-180.4133 134.8574,-190.4133 141.8574,-190.4132"/>
</g>
<!-- 日志系统 -->
<g id="node5" class="node">
<title>日志系统</title>
<polygon fill="none" stroke="#000000" points="74.5724,-36 .1422,-36 .1422,0 74.5724,0 74.5724,-36"/>
<text text-anchor="middle" x="37.3573" y="-13.8" font-family="Times,serif" font-size="14.00" fill="#000000">日志系统</text>
</g>
<!-- 感知、定位&#45;&gt;日志系统 -->
<g id="edge4" class="edge">
<title>感知、定位&#45;&gt;日志系统</title>
<path fill="none" stroke="#000000" stroke-dasharray="5,2" d="M117.9961,-215.61C108.1963,-205.8423 96.9548,-193.1549 89.3573,-180 64.2964,-136.6079 49.6151,-79.5872 42.5618,-46.0544"/>
<polygon fill="#000000" stroke="#000000" points="45.9492,-45.1471 40.5363,-36.0394 39.0881,-46.5348 45.9492,-45.1471"/>
</g>
<!-- 通讯系统 -->
<g id="node6" class="node">
<title>通讯系统</title>
<polygon fill="none" stroke="#000000" points="274.5821,-36 186.1325,-36 186.1325,0 274.5821,0 274.5821,-36"/>
<text text-anchor="middle" x="230.3573" y="-13.8" font-family="Times,serif" font-size="14.00" fill="#000000">通讯系统</text>
</g>
<!-- 感知、定位&#45;&gt;通讯系统 -->
<g id="edge5" class="edge">
<title>感知、定位&#45;&gt;通讯系统</title>
<path fill="none" stroke="#000000" stroke-dasharray="5,2" d="M159.0054,-215.7708C168.8784,-206.0441 180.0986,-193.3448 187.3573,-180 210.9442,-136.6362 222.153,-79.6063 227.0312,-46.064"/>
<polygon fill="#000000" stroke="#000000" points="230.5139,-46.4279 228.4002,-36.0461 223.5784,-45.48 230.5139,-46.4279"/>
</g>
<!-- 运动规划 -->
<g id="node3" class="node">
<title>运动规划</title>
<polygon fill="none" stroke="#000000" points="177.1773,-108 99.5373,-108 99.5373,-72 177.1773,-72 177.1773,-108"/>
<text text-anchor="middle" x="138.3573" y="-85.8" font-family="Times,serif" font-size="14.00" fill="#000000">运动规划</text>
</g>
<!-- 运动预测&#45;&gt;运动规划 -->
<g id="edge2" class="edge">
<title>运动预测&#45;&gt;运动规划</title>
<path fill="none" stroke="#000000" d="M138.3573,-143.8314C138.3573,-136.131 138.3573,-126.9743 138.3573,-118.4166"/>
<polygon fill="#000000" stroke="#000000" points="141.8574,-118.4132 138.3573,-108.4133 134.8574,-118.4133 141.8574,-118.4132"/>
</g>
<!-- 运动控制 -->
<g id="node4" class="node">
<title>运动控制</title>
<polygon fill="none" stroke="#000000" points="167.9661,-36 92.7485,-36 92.7485,0 167.9661,0 167.9661,-36"/>
<text text-anchor="middle" x="130.3573" y="-13.8" font-family="Times,serif" font-size="14.00" fill="#000000">运动控制</text>
</g>
<!-- 运动规划&#45;&gt;运动控制 -->
<g id="edge3" class="edge">
<title>运动规划&#45;&gt;运动控制</title>
<path fill="none" stroke="#000000" d="M136.3386,-71.8314C135.483,-64.131 134.4656,-54.9743 133.5147,-46.4166"/>
<polygon fill="#000000" stroke="#000000" points="136.9862,-45.9656 132.4032,-36.4133 130.029,-46.7386 136.9862,-45.9656"/>
</g>
<!-- 运动规划&#45;&gt;日志系统 -->
<g id="edge6" class="edge">
<title>运动规划&#45;&gt;日志系统</title>
<path fill="none" stroke="#000000" stroke-dasharray="5,2" d="M112.8707,-71.8314C100.1914,-62.7927 84.6977,-51.7476 71.0518,-42.0198"/>
<polygon fill="#000000" stroke="#000000" points="73.0102,-39.1176 62.8357,-36.1628 68.9468,-44.8176 73.0102,-39.1176"/>
</g>
<!-- 运动规划&#45;&gt;通讯系统 -->
<g id="edge7" class="edge">
<title>运动规划&#45;&gt;通讯系统</title>
<path fill="none" stroke="#000000" stroke-dasharray="5,2" d="M155.6204,-71.8314C166.1883,-62.8779 179.9877,-51.9558 192.8907,-42.2955"/>
<polygon fill="#000000" stroke="#000000" points="195.2312,-44.9181 201.1974,-36.1628 191.0735,-39.2866 195.2312,-44.9181"/>
</g>
<!-- 通讯系统&#45;&gt;运动规划 -->
<g id="edge8" class="edge">
<title>通讯系统&#45;&gt;运动规划</title>
<path fill="none" stroke="#000000" stroke-dasharray="5,2" d="M213.1011,-36.1628C202.5345,-45.1154 188.7357,-56.0374 175.8323,-65.6982"/>
<polygon fill="#000000" stroke="#000000" points="173.4913,-63.076 167.5252,-71.8314 177.649,-68.7075 173.4913,-63.076"/>
</g>
</g>
</svg>
