<?xml version="1.0" encoding="UTF-8" standalone="no"?>
<!DOCTYPE svg PUBLIC "-//W3C//DTD SVG 1.1//EN"
 "http://www.w3.org/Graphics/SVG/1.1/DTD/svg11.dtd">
<!-- Generated by graphviz version 2.40.1 (20161225.0304)
 -->
<!-- Title: %0 Pages: 1 -->
<svg width="474pt" height="188pt"
 viewBox="0.00 0.00 474.38 188.00" xmlns="http://www.w3.org/2000/svg" xmlns:xlink="http://www.w3.org/1999/xlink">
<g id="graph0" class="graph" transform="scale(1 1) rotate(0) translate(4 184)">
<title>%0</title>
<polygon fill="#ffffff" stroke="transparent" points="-4,4 -4,-184 470.3765,-184 470.3765,4 -4,4"/>
<!-- 感知、定位 -->
<g id="node1" class="node">
<title>感知、定位</title>
<polygon fill="none" stroke="#000000" points="87.2179,-180 -.0727,-180 -.0727,-144 87.2179,-144 87.2179,-180"/>
<text text-anchor="middle" x="43.5726" y="-157.8" font-family="Times,serif" font-size="14.00" fill="#000000">感知、定位</text>
</g>
<!-- 日志系统 -->
<g id="node2" class="node">
<title>日志系统</title>
<polygon fill="none" stroke="#000000" points="266.7877,-108 192.3575,-108 192.3575,-72 266.7877,-72 266.7877,-108"/>
<text text-anchor="middle" x="229.5726" y="-85.8" font-family="Times,serif" font-size="14.00" fill="#000000">日志系统</text>
</g>
<!-- 感知、定位&#45;&gt;日志系统 -->
<g id="edge5" class="edge">
<title>感知、定位&#45;&gt;日志系统</title>
<path fill="none" stroke="#000000" stroke-dasharray="5,2" d="M87.1813,-145.1192C115.8328,-134.0283 153.2952,-119.5267 182.6026,-108.1819"/>
<polygon fill="#000000" stroke="#000000" points="184.1423,-111.3391 192.2045,-104.4651 181.6153,-104.8111 184.1423,-111.3391"/>
</g>
<!-- 运动预测 -->
<g id="node4" class="node">
<title>运动预测</title>
<polygon fill="none" stroke="#000000" points="184.4473,-180 104.6979,-180 104.6979,-144 184.4473,-144 184.4473,-180"/>
<text text-anchor="middle" x="144.5726" y="-157.8" font-family="Times,serif" font-size="14.00" fill="#000000">运动预测</text>
</g>
<!-- 感知、定位&#45;&gt;运动预测 -->
<g id="edge1" class="edge">
<title>感知、定位&#45;&gt;运动预测</title>
<path fill="none" stroke="#000000" d="M87.3656,-162C89.8167,-162 92.2678,-162 94.719,-162"/>
<polygon fill="#000000" stroke="#000000" points="94.7959,-165.5001 104.7958,-162 94.7958,-158.5001 94.7959,-165.5001"/>
</g>
<!-- 通讯系统 -->
<g id="node3" class="node">
<title>通讯系统</title>
<polygon fill="none" stroke="#000000" points="273.7974,-36 185.3478,-36 185.3478,0 273.7974,0 273.7974,-36"/>
<text text-anchor="middle" x="229.5726" y="-13.8" font-family="Times,serif" font-size="14.00" fill="#000000">通讯系统</text>
</g>
<!-- 日志系统&#45;&gt;通讯系统 -->
<g id="edge10" class="edge">
<title>日志系统&#45;&gt;通讯系统</title>
<path fill="none" stroke="#000000" d="M223.6202,-71.8314C222.8698,-64.131 222.6489,-54.9743 222.9575,-46.4166"/>
<polygon fill="#000000" stroke="#000000" points="226.4518,-46.6161 223.5966,-36.4133 219.4661,-46.1697 226.4518,-46.6161"/>
</g>
<!-- 通讯系统&#45;&gt;日志系统 -->
<g id="edge11" class="edge">
<title>通讯系统&#45;&gt;日志系统</title>
<path fill="none" stroke="#000000" d="M235.5486,-36.4133C236.2797,-44.0593 236.4929,-53.1084 236.1881,-61.5726"/>
<polygon fill="#000000" stroke="#000000" points="232.6774,-61.6264 235.525,-71.8314 239.6628,-62.078 232.6774,-61.6264"/>
</g>
<!-- 运动预测&#45;&gt;日志系统 -->
<g id="edge6" class="edge">
<title>运动预测&#45;&gt;日志系统</title>
<path fill="none" stroke="#000000" stroke-dasharray="5,2" d="M166.0217,-143.8314C176.3904,-135.0485 188.9955,-124.3712 200.2372,-114.8489"/>
<polygon fill="#000000" stroke="#000000" points="202.7621,-117.297 208.1304,-108.1628 198.2377,-111.9556 202.7621,-117.297"/>
</g>
<!-- 搜索 -->
<g id="node6" class="node">
<title>搜索</title>
<polygon fill="none" stroke="#000000" points="256.5726,-180 202.5726,-180 202.5726,-144 256.5726,-144 256.5726,-180"/>
<text text-anchor="middle" x="229.5726" y="-157.8" font-family="Times,serif" font-size="14.00" fill="#000000">搜索</text>
</g>
<!-- 运动预测&#45;&gt;搜索 -->
<g id="edge2" class="edge">
<title>运动预测&#45;&gt;搜索</title>
<path fill="none" stroke="#000000" d="M184.4164,-162C187.0402,-162 189.664,-162 192.2878,-162"/>
<polygon fill="#000000" stroke="#000000" points="192.4083,-165.5001 202.4083,-162 192.4083,-158.5001 192.4083,-165.5001"/>
</g>
<!-- 运动控制 -->
<g id="node5" class="node">
<title>运动控制</title>
<polygon fill="none" stroke="#000000" points="466.1814,-180 390.9638,-180 390.9638,-144 466.1814,-144 466.1814,-180"/>
<text text-anchor="middle" x="428.5726" y="-157.8" font-family="Times,serif" font-size="14.00" fill="#000000">运动控制</text>
</g>
<!-- 运动控制&#45;&gt;日志系统 -->
<g id="edge9" class="edge">
<title>运动控制&#45;&gt;日志系统</title>
<path fill="none" stroke="#000000" stroke-dasharray="5,2" d="M390.893,-147.4768C387.7436,-146.2911 384.6056,-145.1193 381.5726,-144 346.5202,-131.0636 306.7189,-116.9442 276.6393,-106.3884"/>
<polygon fill="#000000" stroke="#000000" points="277.4268,-102.9558 266.8319,-102.9521 275.112,-109.562 277.4268,-102.9558"/>
</g>
<!-- 搜索&#45;&gt;日志系统 -->
<g id="edge7" class="edge">
<title>搜索&#45;&gt;日志系统</title>
<path fill="none" stroke="#000000" stroke-dasharray="5,2" d="M229.5726,-143.8314C229.5726,-136.131 229.5726,-126.9743 229.5726,-118.4166"/>
<polygon fill="#000000" stroke="#000000" points="233.0727,-118.4132 229.5726,-108.4133 226.0727,-118.4133 233.0727,-118.4132"/>
</g>
<!-- 轨迹优化 -->
<g id="node7" class="node">
<title>轨迹优化</title>
<polygon fill="none" stroke="#000000" points="372.607,-180 274.5382,-180 274.5382,-144 372.607,-144 372.607,-180"/>
<text text-anchor="middle" x="323.5726" y="-157.8" font-family="Times,serif" font-size="14.00" fill="#000000">轨迹优化</text>
</g>
<!-- 搜索&#45;&gt;轨迹优化 -->
<g id="edge3" class="edge">
<title>搜索&#45;&gt;轨迹优化</title>
<path fill="none" stroke="#000000" d="M256.7445,-162C259.2407,-162 261.737,-162 264.2333,-162"/>
<polygon fill="#000000" stroke="#000000" points="264.4957,-165.5001 274.4957,-162 264.4957,-158.5001 264.4957,-165.5001"/>
</g>
<!-- 轨迹优化&#45;&gt;日志系统 -->
<g id="edge8" class="edge">
<title>轨迹优化&#45;&gt;日志系统</title>
<path fill="none" stroke="#000000" stroke-dasharray="5,2" d="M299.8524,-143.8314C288.1632,-134.8779 273.9038,-123.9558 261.2917,-114.2955"/>
<polygon fill="#000000" stroke="#000000" points="263.3523,-111.4651 253.2852,-108.1628 259.0957,-117.0222 263.3523,-111.4651"/>
</g>
<!-- 轨迹优化&#45;&gt;运动控制 -->
<g id="edge4" class="edge">
<title>轨迹优化&#45;&gt;运动控制</title>
<path fill="none" stroke="#000000" d="M372.7913,-162C375.397,-162 378.0027,-162 380.6084,-162"/>
<polygon fill="#000000" stroke="#000000" points="380.6588,-165.5001 390.6588,-162 380.6587,-158.5001 380.6588,-165.5001"/>
</g>
</g>
</svg>
