<?xml version="1.0" encoding="UTF-8" standalone="no"?>
<!DOCTYPE svg PUBLIC "-//W3C//DTD SVG 1.1//EN"
 "http://www.w3.org/Graphics/SVG/1.1/DTD/svg11.dtd">
<!-- Generated by graphviz version 2.40.1 (20161225.0304)
 -->
<!-- Title: %0 Pages: 1 -->
<svg width="89pt" height="332pt"
 viewBox="0.00 0.00 89.00 332.00" xmlns="http://www.w3.org/2000/svg" xmlns:xlink="http://www.w3.org/1999/xlink">
<g id="graph0" class="graph" transform="scale(1 1) rotate(0) translate(4 328)">
<title>%0</title>
<polygon fill="#ffffff" stroke="transparent" points="-4,4 -4,-328 85,-328 85,4 -4,4"/>
<!-- A -->
<g id="node1" class="node">
<title>A</title>
<ellipse fill="none" stroke="#000000" cx="54" cy="-306" rx="27" ry="18"/>
<text text-anchor="middle" x="54" y="-301.8" font-family="Times,serif" font-size="14.00" fill="#000000">A</text>
</g>
<!-- C -->
<g id="node3" class="node">
<title>C</title>
<ellipse fill="none" stroke="#000000" cx="27" cy="-234" rx="27" ry="18"/>
<text text-anchor="middle" x="27" y="-229.8" font-family="Times,serif" font-size="14.00" fill="#000000">C</text>
</g>
<!-- A&#45;&gt;C -->
<g id="edge1" class="edge">
<title>A&#45;&gt;C</title>
<path fill="none" stroke="#000000" d="M47.3258,-288.2022C44.2524,-280.0064 40.5384,-270.1024 37.1305,-261.0145"/>
<polygon fill="#000000" stroke="#000000" points="40.3858,-259.7274 33.5974,-251.593 33.8315,-262.1853 40.3858,-259.7274"/>
</g>
<!-- D -->
<g id="node4" class="node">
<title>D</title>
<ellipse fill="none" stroke="#000000" cx="54" cy="-162" rx="27" ry="18"/>
<text text-anchor="middle" x="54" y="-157.8" font-family="Times,serif" font-size="14.00" fill="#000000">D</text>
</g>
<!-- A&#45;&gt;D -->
<g id="edge2" class="edge">
<title>A&#45;&gt;D</title>
<path fill="none" stroke="#000000" d="M57.7474,-288.0931C59.7466,-277.6241 61.9966,-264.1241 63,-252 64.3197,-236.0545 64.3197,-231.9455 63,-216 62.2945,-207.4753 60.9727,-198.2703 59.5551,-189.917"/>
<polygon fill="#000000" stroke="#000000" points="62.9689,-189.1258 57.7474,-179.9069 56.0803,-190.3698 62.9689,-189.1258"/>
</g>
<!-- B -->
<g id="node2" class="node">
<title>B</title>
<ellipse fill="none" stroke="#000000" cx="54" cy="-90" rx="27" ry="18"/>
<text text-anchor="middle" x="54" y="-85.8" font-family="Times,serif" font-size="14.00" fill="#000000">B</text>
</g>
<!-- E -->
<g id="node5" class="node">
<title>E</title>
<ellipse fill="none" stroke="#000000" cx="54" cy="-18" rx="27" ry="18"/>
<text text-anchor="middle" x="54" y="-13.8" font-family="Times,serif" font-size="14.00" fill="#000000">E</text>
</g>
<!-- B&#45;&gt;E -->
<g id="edge3" class="edge">
<title>B&#45;&gt;E</title>
<path fill="none" stroke="#000000" d="M54,-71.8314C54,-64.131 54,-54.9743 54,-46.4166"/>
<polygon fill="#000000" stroke="#000000" points="57.5001,-46.4132 54,-36.4133 50.5001,-46.4133 57.5001,-46.4132"/>
</g>
<!-- C&#45;&gt;D -->
<g id="edge4" class="edge">
<title>C&#45;&gt;D</title>
<path fill="none" stroke="#000000" d="M33.6742,-216.2022C36.7476,-208.0064 40.4616,-198.1024 43.8695,-189.0145"/>
<polygon fill="#000000" stroke="#000000" points="47.1685,-190.1853 47.4026,-179.593 40.6142,-187.7274 47.1685,-190.1853"/>
</g>
<!-- D&#45;&gt;B -->
<g id="edge5" class="edge">
<title>D&#45;&gt;B</title>
<path fill="none" stroke="#000000" d="M54,-143.8314C54,-136.131 54,-126.9743 54,-118.4166"/>
<polygon fill="#000000" stroke="#000000" points="57.5001,-118.4132 54,-108.4133 50.5001,-118.4133 57.5001,-118.4132"/>
</g>
</g>
</svg>
