<?xml version="1.0" encoding="UTF-8" standalone="no"?>
<!DOCTYPE svg PUBLIC "-//W3C//DTD SVG 1.1//EN"
 "http://www.w3.org/Graphics/SVG/1.1/DTD/svg11.dtd">
<!-- Generated by graphviz version 2.40.1 (20161225.0304)
 -->
<!-- Title: %0 Pages: 1 -->
<svg width="288pt" height="212pt"
 viewBox="0.00 0.00 288.37 212.00" xmlns="http://www.w3.org/2000/svg" xmlns:xlink="http://www.w3.org/1999/xlink">
<g id="graph0" class="graph" transform="scale(1 1) rotate(0) translate(4 208)">
<title>%0</title>
<polygon fill="#ffffff" stroke="transparent" points="-4,4 -4,-208 284.3741,-208 284.3741,4 -4,4"/>
<!-- 西直门 -->
<g id="node1" class="node">
<title>西直门</title>
<ellipse fill="none" stroke="#000000" cx="206.9971" cy="-186" rx="47.5158" ry="18"/>
<text text-anchor="middle" x="206.9971" y="-181.8" font-family="Times,serif" font-size="14.00" fill="#000000">西直门</text>
</g>
<!-- 知春路 -->
<g id="node2" class="node">
<title>知春路</title>
<ellipse fill="none" stroke="#000000" cx="44.9971" cy="-102" rx="44.9942" ry="18"/>
<text text-anchor="middle" x="44.9971" y="-97.8" font-family="Times,serif" font-size="14.00" fill="#000000">知春路</text>
</g>
<!-- 西直门&#45;&#45;知春路 -->
<g id="edge1" class="edge">
<title>西直门&#45;&#45;知春路</title>
<path fill="none" stroke="#000000" d="M182.6035,-170.5326C166.7407,-160.7288 145.4601,-148.0485 125.9971,-138 109.9985,-129.7402 91.7046,-121.5108 76.5551,-115.0093"/>
<text text-anchor="middle" x="163.8501" y="-141" font-family="Times,serif" font-size="10.00" fill="#000000">十三号线</text>
</g>
<!-- 鼓楼大街 -->
<g id="node5" class="node">
<title>鼓楼大街</title>
<ellipse fill="none" stroke="#000000" cx="174.9971" cy="-102" rx="67.2235" ry="18"/>
<text text-anchor="middle" x="174.9971" y="-97.8" font-family="Times,serif" font-size="14.00" fill="#000000">鼓楼大街</text>
</g>
<!-- 西直门&#45;&#45;鼓楼大街 -->
<g id="edge5" class="edge">
<title>西直门&#45;&#45;鼓楼大街</title>
<path fill="none" stroke="#000000" d="M200.0536,-167.7733C194.6861,-153.6836 187.2911,-134.2718 181.9271,-120.1912"/>
<text text-anchor="middle" x="206.6551" y="-141" font-family="Times,serif" font-size="10.00" fill="#000000">二号线</text>
</g>
<!-- 海淀黄庄 -->
<g id="node3" class="node">
<title>海淀黄庄</title>
<ellipse fill="none" stroke="#000000" cx="223.9971" cy="-18" rx="50.5622" ry="18"/>
<text text-anchor="middle" x="223.9971" y="-13.8" font-family="Times,serif" font-size="14.00" fill="#000000">海淀黄庄</text>
</g>
<!-- 知春路&#45;&#45;海淀黄庄 -->
<g id="edge2" class="edge">
<title>知春路&#45;&#45;海淀黄庄</title>
<path fill="none" stroke="#000000" d="M74.5553,-88.1291C107.3239,-72.7517 159.9329,-48.0636 193.1941,-32.455"/>
<text text-anchor="middle" x="158.6856" y="-57" font-family="Times,serif" font-size="10.00" fill="#000000">十号线</text>
</g>
<!-- 五道口 -->
<g id="node4" class="node">
<title>五道口</title>
<ellipse fill="none" stroke="#000000" cx="44.9971" cy="-18" rx="41.7172" ry="18"/>
<text text-anchor="middle" x="44.9971" y="-13.8" font-family="Times,serif" font-size="14.00" fill="#000000">五道口</text>
</g>
<!-- 知春路&#45;&#45;五道口 -->
<g id="edge4" class="edge">
<title>知春路&#45;&#45;五道口</title>
<path fill="none" stroke="#000000" d="M44.9971,-83.7733C44.9971,-69.6836 44.9971,-50.2718 44.9971,-36.1912"/>
<text text-anchor="middle" x="62.8501" y="-57" font-family="Times,serif" font-size="10.00" fill="#000000">十三号线</text>
</g>
<!-- 海淀黄庄&#45;&#45;西直门 -->
<g id="edge3" class="edge">
<title>海淀黄庄&#45;&#45;西直门</title>
<path fill="none" stroke="#000000" d="M234.7325,-35.7963C245.6711,-56.2357 259.862,-90.7212 250.9971,-120 245.45,-138.3206 232.9549,-156.204 222.6922,-168.7237"/>
<text text-anchor="middle" x="266.6856" y="-99" font-family="Times,serif" font-size="10.00" fill="#000000">四号线</text>
</g>
<!-- 北土城 -->
<g id="node6" class="node">
<title>北土城</title>
<ellipse fill="none" stroke="#000000" cx="69.9971" cy="-186" rx="32.5309" ry="18"/>
<text text-anchor="middle" x="69.9971" y="-181.8" font-family="Times,serif" font-size="14.00" fill="#000000">北土城</text>
</g>
<!-- 北土城&#45;&#45;知春路 -->
<g id="edge7" class="edge">
<title>北土城&#45;&#45;知春路</title>
<path fill="none" stroke="#000000" d="M55.8758,-169.4926C51.7603,-163.7046 47.7898,-156.9137 45.6201,-150 42.6255,-140.458 42.3015,-129.3148 42.8023,-120.1681"/>
<text text-anchor="middle" x="59.6856" y="-141" font-family="Times,serif" font-size="10.00" fill="#000000">十号线</text>
</g>
<!-- 北土城&#45;&#45;鼓楼大街 -->
<g id="edge6" class="edge">
<title>北土城&#45;&#45;鼓楼大街</title>
<path fill="none" stroke="#000000" d="M76.3961,-168.2103C80.706,-158.2803 87.2368,-146.2803 96.1201,-138 106.1401,-128.6601 119.0033,-121.4114 131.4222,-115.9473"/>
<text text-anchor="middle" x="110.9356" y="-141" font-family="Times,serif" font-size="10.00" fill="#000000">八号线</text>
</g>
</g>
</svg>
